<svg xmlns="http://www.w3.org/2000/svg"
     width="135.45mm" height="135.45mm"
     viewBox="0 0 512 512">
  <path id="Selection"
        fill="none" stroke="black" stroke-width="1"
        d="M 238.00,0.21
           C 216.50,3.67 200.36,7.82 181.00,18.31
             142.73,39.05 114.09,76.49 104.58,119.00
             102.67,127.52 101.01,136.24 101.00,145.00
             100.96,168.20 100.81,183.40 108.69,206.00
             124.53,251.41 158.73,285.67 204.00,301.69
             215.25,305.67 232.11,309.86 244.00,310.00
             244.00,310.00 266.00,310.00 266.00,310.00
             287.27,309.97 314.63,301.09 333.00,290.57
             361.61,274.19 383.95,250.00 397.69,220.00
             404.17,205.86 410.81,182.53 411.00,167.00
             411.00,167.00 411.00,145.00 411.00,145.00
             410.94,107.14 388.78,64.68 361.00,39.84
             347.93,28.14 333.30,18.26 317.00,11.60
             301.77,5.38 282.53,0.03 266.00,0.21
             266.00,0.21 238.00,0.21 238.00,0.21 Z
           M 271.00,62.00
           C 271.00,62.00 271.00,75.00 271.00,75.00
             271.04,76.79 270.98,79.03 272.02,80.57
             273.46,82.70 277.62,83.67 280.00,84.62
             284.71,86.48 288.03,88.48 291.99,91.67
             302.27,99.96 306.96,112.17 308.00,125.00
             308.00,125.00 279.00,125.00 279.00,125.00
             275.78,111.46 266.15,109.87 254.00,110.00
             244.69,110.11 234.59,113.18 233.23,124.00
             232.45,130.14 237.41,137.13 243.00,139.26
             245.28,140.13 248.55,140.00 251.00,140.00
             258.04,140.01 268.23,140.25 275.00,141.90
             289.39,145.40 301.63,156.83 305.96,171.00
             311.14,187.95 306.57,205.99 293.00,217.70
             289.14,221.02 284.73,223.67 280.00,225.54
             277.54,226.51 273.53,227.19 272.02,229.43
             270.78,231.27 271.00,234.82 271.00,237.00
             271.00,237.00 271.00,248.00 271.00,248.00
             271.00,248.00 242.00,248.00 242.00,248.00
             242.00,248.00 242.00,236.00 242.00,236.00
             241.77,223.69 234.36,229.78 221.00,219.47
             210.03,211.01 205.09,199.48 204.00,186.00
             204.00,186.00 233.00,186.00 233.00,186.00
             234.30,190.55 235.91,194.17 240.04,196.86
             247.25,201.54 276.48,204.12 278.77,186.00
             279.19,182.69 278.23,179.71 276.35,177.00
             270.13,168.07 263.40,170.11 254.00,170.00
             238.35,169.81 223.63,165.80 213.52,153.00
             192.34,126.20 207.97,86.80 242.00,82.00
             242.00,82.00 242.00,62.00 242.00,62.00
             242.00,62.00 271.00,62.00 271.00,62.00 Z
           M 135.00,295.00
           C 135.00,295.00 135.00,361.00 135.00,361.00
             135.00,361.00 105.00,361.00 105.00,361.00
             105.00,361.00 105.00,383.00 105.00,383.00
             105.07,392.98 111.24,396.24 118.00,403.00
             118.00,403.00 152.00,437.00 152.00,437.00
             152.00,437.00 170.00,455.00 170.00,455.00
             171.93,456.93 176.65,462.02 179.00,462.83
             182.28,463.97 184.86,461.03 187.00,458.98
             187.00,458.98 205.00,441.00 205.00,441.00
             205.00,441.00 242.00,404.00 242.00,404.00
             245.26,400.74 253.98,392.85 255.40,389.00
             256.12,387.06 256.00,384.09 256.00,382.00
             256.00,382.00 256.00,361.00 256.00,361.00
             256.00,361.00 226.00,361.00 226.00,361.00
             226.00,361.00 226.00,337.00 226.00,337.00
             204.37,332.93 185.19,326.55 166.00,315.57
             166.00,315.57 154.00,308.26 154.00,308.26
             148.47,304.51 140.23,297.36 135.00,295.00 Z
           M 286.00,337.00
           C 286.00,337.00 286.00,409.00 286.00,409.00
             286.00,409.00 256.00,409.00 256.00,409.00
             256.00,409.00 256.00,431.00 256.00,431.00
             256.07,440.98 262.24,444.24 269.00,451.00
             269.00,451.00 303.00,485.00 303.00,485.00
             303.00,485.00 321.00,503.00 321.00,503.00
             322.93,504.93 327.65,510.02 330.00,510.83
             333.28,511.97 335.86,509.03 338.00,506.98
             338.00,506.98 356.00,489.00 356.00,489.00
             356.00,489.00 393.00,452.00 393.00,452.00
             396.26,448.74 404.98,440.85 406.40,437.00
             407.12,435.06 407.00,432.09 407.00,430.00
             407.00,430.00 407.00,409.00 407.00,409.00
             407.00,409.00 377.00,409.00 377.00,409.00
             377.00,409.00 377.00,295.00 377.00,295.00
             377.00,295.00 348.00,314.57 348.00,314.57
             327.94,326.05 308.62,332.74 286.00,337.00 Z" />
</svg>
